<svg width="241" height="241" viewBox="0 0 241 241" fill="none" xmlns="http://www.w3.org/2000/svg">
<path d="M99.5557 59.9453C101.683 60.4586 102.779 61.8102 104.325 63.3426C115.204 74.1288 125.954 85.0406 136.815 95.8536L152.138 111.171C154.559 113.59 157.06 115.972 159.438 118.424C159.963 118.965 160.514 119.501 160.465 120.21C160.391 121.291 160.151 121.824 159.425 122.614C157.284 124.942 154.922 127.169 152.678 129.403L139.968 142.112C127.577 154.543 114.712 167.77 102.085 179.859C101.747 180.158 101.348 180.521 100.947 180.727C100.437 180.988 99.8751 181.001 99.3489 180.784C98.3893 180.389 86.8705 168.98 86.441 167.77C86.0501 166.668 86.3031 165.152 86.955 164.197C88.2384 162.317 92.8461 158.736 94.78 156.833C98.1304 153.535 101.138 149.939 104.451 146.626C107.511 143.567 110.78 140.711 113.862 137.671C116.984 134.59 119.9 131.339 122.959 128.202C125.31 125.793 128.527 123.503 129.924 120.426C127.495 117.273 124.766 115.075 122.127 112.213C117.175 106.842 112.179 101.925 106.811 96.9906C102.764 93.2711 98.969 88.7733 95.0758 84.8168C92.6387 82.3402 87.79 78.5313 86.0312 75.8146C86.7926 70.7743 89.7096 69.9621 93.1132 66.513C95.2034 64.3949 97.3564 61.8564 99.5557 59.9453Z" fill="white"/>
</svg>
