<svg width="75" height="121" viewBox="0 0 75 121" fill="none" xmlns="http://www.w3.org/2000/svg">
<path d="M13.5245 0C15.6518 0.513302 16.7481 1.86493 18.2936 3.3973C29.1728 14.1835 39.9227 25.0953 50.7842 35.9083L66.1072 51.2254C68.5278 53.6444 71.0289 56.0264 73.4066 58.479C73.9315 59.0201 74.4824 59.5557 74.4337 60.2651C74.3596 61.3453 74.1193 61.8791 73.3937 62.6682C71.2532 64.9963 68.8909 67.2237 66.6466 69.4579L53.9369 82.1671C41.5457 94.5974 28.6806 107.825 16.0536 119.914C15.7154 120.213 15.3172 120.575 14.9154 120.781C14.4061 121.043 13.8438 121.056 13.3176 120.839C12.3581 120.444 0.839263 109.035 0.409746 107.824C0.0188275 106.722 0.271828 105.207 0.923752 104.252C2.20712 102.371 6.81483 98.7907 8.74872 96.8874C12.0992 93.5894 15.1063 89.9935 18.42 86.6807C21.4798 83.6216 24.7484 80.7661 27.8303 77.7253C30.9523 74.6446 33.8687 71.3932 36.9281 68.2571C39.2785 65.8476 42.4953 63.5576 43.8924 60.4811C41.4638 57.3279 38.7346 55.1297 36.0959 52.2676C31.1438 46.8966 26.1473 41.9792 20.7794 37.0453C16.7328 33.3258 12.9377 28.828 9.04456 24.8715C6.60749 22.3949 1.75878 18.5859 0 15.8693C0.761362 10.829 3.6783 10.0168 7.08196 6.56772C9.17211 4.44955 11.3251 1.91105 13.5245 0Z" fill="white"/>
</svg>
